<svg id="SvgjsSvg1001" width="288" height="288" xmlns="http://www.w3.org/2000/svg" version="1.1" xmlns:xlink="http://www.w3.org/1999/xlink" xmlns:svgjs="http://svgjs.com/svgjs"><defs id="SvgjsDefs1002"></defs><g id="SvgjsG1008" transform="matrix(0.916700005531311,0,0,0.916700005531311,11.995199203491211,11.995199203491211)"><svg xmlns="http://www.w3.org/2000/svg" fill-rule="evenodd" stroke-linejoin="round" stroke-miterlimit="2" clip-rule="evenodd" viewBox="0 0 32 32" width="288" height="288"><rect width="32" height="32" fill="none"></rect><path d="M9,26l-4,0c-0.796,-0 -1.559,-0.316 -2.121,-0.879c-0.563,-0.562 -0.879,-1.325 -0.879,-2.121c0,-3.648 0,-11.301 0,-14.52c0,-1.317 0.859,-2.48 2.117,-2.868c2.581,-0.794 8.016,-2.468 10.412,-3.205c0.958,-0.295 1.984,-0.295 2.942,-0c2.396,0.737 7.831,2.411 10.412,3.205c1.258,0.388 2.117,1.551 2.117,2.868c-0,3.219 -0,10.872 -0,14.52c0,0.796 -0.316,1.559 -0.879,2.121c-0.562,0.563 -1.325,0.879 -2.121,0.879l-4,0l0,1c-0,1.657 -1.343,3 -3,3c-2.22,0 -5.78,0 -8,-0c-1.657,-0 -3,-1.343 -3,-3l-0,-1Zm12,1l-0,-10c-0,-0.552 -0.448,-1 -1,-1c-2.22,-0 -5.78,-0 -8,-0c-0.552,0 -1,0.448 -1,1l-0,10c0,0.552 0.448,1 1,1c2.22,0 5.78,0 8,0c0.552,-0 1,-0.448 1,-1Zm2,-3l4,0c0.265,-0 0.52,-0.105 0.707,-0.293c0.188,-0.187 0.293,-0.442 0.293,-0.707c-0,-3.648 -0,-11.301 0,-14.52c-0,-0.439 -0.286,-0.827 -0.706,-0.956c-2.581,-0.795 -8.015,-2.468 -10.411,-3.206c-0.575,-0.177 -1.191,-0.177 -1.766,0c-2.396,0.738 -7.83,2.411 -10.411,3.206c-0.42,0.129 -0.706,0.517 -0.706,0.956c-0,3.219 -0,10.872 -0,14.52c-0,0.265 0.105,0.52 0.293,0.707c0.187,0.188 0.442,0.293 0.707,0.293l4,0l-0,-7c0,-1.657 1.343,-3 3,-3c2.22,-0 5.78,-0 8,0c1.657,0 3,1.343 3,3l-0,7Z" fill="#7165e3" class="color000 svgShape"></path></svg></g></svg>