<svg id="SvgjsSvg1031" width="288" height="288" xmlns="http://www.w3.org/2000/svg" version="1.1" xmlns:xlink="http://www.w3.org/1999/xlink" xmlns:svgjs="http://svgjs.com/svgjs"><defs id="SvgjsDefs1032"></defs><g id="SvgjsG1033" transform="matrix(0.916700005531311,0,0,0.916700005531311,12.013566017150879,11.995199203491211)"><svg xmlns="http://www.w3.org/2000/svg" viewBox="0 0 16 16" width="288" height="288"><path fill="#7165e3" d="M6 6A2 2 0 0 0 4.5 4.07V2.5a.5.5 0 0 0-1 0V4.07a2 2 0 0 0 0 3.86V13.5a.5.5 0 0 0 1 0V7.93A2 2 0 0 0 6 6zM4 7A1 1 0 1 1 5 6 1 1 0 0 1 4 7zM8.5 9.07V2.5a.5.5 0 0 0-1 0V9.07a2 2 0 0 0 0 3.86v.57a.5.5 0 0 0 1 0v-.57a2 2 0 0 0 0-3.86zM8 12a1 1 0 1 1 1-1A1 1 0 0 1 8 12zM14 5a2 2 0 0 0-1.5-1.93V2.5a.5.5 0 0 0-1 0v.57a2 2 0 0 0 0 3.86V13.5a.5.5 0 0 0 1 0V6.93A2 2 0 0 0 14 5zM12 6a1 1 0 1 1 1-1A1 1 0 0 1 12 6z" data-name="Layer 2" class="color231f20 svgShape"></path></svg></g></svg>