<svg id="SvgjsSvg1025" width="288" height="288" xmlns="http://www.w3.org/2000/svg" version="1.1" xmlns:xlink="http://www.w3.org/1999/xlink" xmlns:svgjs="http://svgjs.com/svgjs"><defs id="SvgjsDefs1026"></defs><g id="SvgjsG1027" transform="matrix(0.916700005531311,0,0,0.916700005531311,11.225289344787598,11.225292205810547)"><svg xmlns="http://www.w3.org/2000/svg" viewBox="0 0 32 32" width="288" height="288"><path fill="#7165e3" d="M25.71,24.29l-6.54-6.54a8.53,8.53,0,1,0-1.42,1.42l6.54,6.54a1,1,0,0,0,1.42,0A1,1,0,0,0,25.71,24.29ZM6,12.5A6.5,6.5,0,1,1,12.5,19,6.51,6.51,0,0,1,6,12.5Z" class="color8c9eff svgShape"></path><path fill="#6e5ff9" d="M24.29,25.71a1,1,0,0,0,1.42,0l-8.62-8.62A6.49,6.49,0,1,1,7.91,7.91L6.49,6.49A8.49,8.49,0,0,0,17.75,19.17Z" class="color5f7cf9 svgShape"></path></svg></g></svg>